<svg xmlns="http://www.w3.org/2000/svg" viewBox="0 0 2048 1024">
  <defs>
    <radialGradient id="ocean" cx="48%" cy="42%" r="78%">
      <stop offset="0" stop-color="#1d4258"/>
      <stop offset="0.52" stop-color="#0b263a"/>
      <stop offset="1" stop-color="#020b15"/>
    </radialGradient>
    <linearGradient id="equator" x1="0" y1="0" x2="1" y2="0">
      <stop offset="0" stop-color="#67e8f9" stop-opacity="0"/>
      <stop offset="0.5" stop-color="#67e8f9" stop-opacity="0.18"/>
      <stop offset="1" stop-color="#67e8f9" stop-opacity="0"/>
    </linearGradient>
    <pattern id="grid" width="128" height="128" patternUnits="userSpaceOnUse">
      <path d="M0 64H128M64 0V128" fill="none" stroke="#a5f3fc" stroke-opacity="0.035" stroke-width="1"/>
      <circle cx="32" cy="34" r="1" fill="#e0f2fe" opacity="0.08"/>
      <circle cx="94" cy="88" r="1.2" fill="#67e8f9" opacity="0.06"/>
    </pattern>
    <filter id="soften">
      <feGaussianBlur stdDeviation="0.45"/>
    </filter>
  </defs>
  <rect width="2048" height="1024" fill="url(#ocean)"/>
  <rect width="2048" height="1024" fill="url(#grid)"/>
  <g fill="none" stroke="url(#equator)" stroke-width="2" filter="url(#soften)">
    <path d="M0 512C248 492 480 493 706 534C934 576 1128 577 1350 534C1586 489 1810 486 2048 506"/>
    <path d="M0 312C300 298 514 314 730 360C944 406 1110 406 1330 362C1586 312 1798 296 2048 304" opacity="0.45"/>
    <path d="M0 724C288 704 498 722 732 774C948 822 1122 822 1344 778C1580 732 1812 710 2048 726" opacity="0.38"/>
  </g>
</svg>
