<svg xmlns="http://www.w3.org/2000/svg" width="430" height="900" viewBox="0 0 430 900">
  <rect width="430" height="900" fill="#05070A"/>
  <rect x="12" y="12" width="406" height="876" rx="38" fill="#05070A" stroke="#1E293B" stroke-width="3"/>
  <line x1="24" y1="92" x2="406" y2="92" stroke="#172033"/>
  <text x="36" y="66" fill="#F8FAFC" font-size="34" font-family="Segoe UI,Arial" font-weight="700">‹</text>
  <text x="84" y="51" fill="#64748B" font-size="11" font-family="Segoe UI,Arial" font-weight="700" letter-spacing="2">MEMBERSHIP</text>
  <text x="84" y="75" fill="#F8FAFC" font-size="18" font-family="Segoe UI,Arial" font-weight="700">MOVEVI Premium</text>

  <rect x="34" y="118" width="362" height="190" rx="28" fill="#111827" stroke="#253044"/>
  <rect x="54" y="142" width="250" height="28" rx="14" fill="#3A1118" stroke="#7F1D1D"/>
  <text x="68" y="161" fill="#FECACA" font-size="10.5" font-family="Segoe UI,Arial" font-weight="700">PAYMENT UPDATE NEEDED</text>
  <text x="54" y="205" fill="#F8FAFC" font-size="30" font-family="Segoe UI,Arial" font-weight="800">Update payment</text>
  <text x="54" y="240" fill="#F8FAFC" font-size="30" font-family="Segoe UI,Arial" font-weight="800">to restart Premium.</text>
  <text x="54" y="266" fill="#94A3B8" font-size="14" font-family="Segoe UI,Arial">Premium is paused until you update your</text>
  <text x="54" y="286" fill="#94A3B8" font-size="14" font-family="Segoe UI,Arial">payment method.</text>
  <rect x="328" y="142" width="48" height="48" rx="14" fill="#FBBF24"/>
  <text x="343" y="174" fill="#05070A" font-size="24" font-family="Segoe UI Symbol,Arial" font-weight="700">★</text>

  <rect x="34" y="328" width="362" height="86" rx="18" fill="#17130A" stroke="#B45309"/>
  <text x="54" y="357" fill="#F8FAFC" font-size="16" font-family="Segoe UI,Arial" font-weight="700">Premium Monthly</text>
  <text x="54" y="385" fill="#64748B" font-size="11" font-family="Segoe UI,Arial">One monthly plan. All Premium routes.</text>
  <text x="304" y="360" fill="#F8FAFC" font-size="28" font-family="Segoe UI,Arial" font-weight="800">$4.99</text>
  <text x="345" y="389" fill="#64748B" font-size="14" font-family="Segoe UI,Arial">/month</text>

  <rect x="34" y="434" width="362" height="138" rx="18" fill="#0B1018" stroke="#223044"/>
  <text x="54" y="462" fill="#F8FAFC" font-size="16" font-family="Segoe UI,Arial" font-weight="700">Included</text>
  <circle cx="64" cy="496" r="10" fill="#073B2A" stroke="#14532D"/>
  <text x="59" y="501" fill="#34D399" font-size="13" font-family="Segoe UI,Arial" font-weight="700">✓</text>
  <text x="86" y="501" fill="#CBD5E1" font-size="14" font-family="Segoe UI,Arial">All premium city routes</text>
  <circle cx="64" cy="524" r="10" fill="#073B2A" stroke="#14532D"/>
  <text x="59" y="529" fill="#34D399" font-size="13" font-family="Segoe UI,Arial" font-weight="700">✓</text>
  <text x="86" y="529" fill="#CBD5E1" font-size="14" font-family="Segoe UI,Arial">New route drops included</text>
  <circle cx="64" cy="552" r="10" fill="#073B2A" stroke="#14532D"/>
  <text x="59" y="557" fill="#34D399" font-size="13" font-family="Segoe UI,Arial" font-weight="700">✓</text>
  <text x="86" y="557" fill="#CBD5E1" font-size="14" font-family="Segoe UI,Arial">Cancel anytime before renewal</text>

  <rect x="34" y="592" width="362" height="124" rx="18" fill="#0F172A" stroke="#223044"/>
  <text x="54" y="620" fill="#F8FAFC" font-size="16" font-family="Segoe UI,Arial" font-weight="700">Your membership</text>
  <rect x="54" y="642" width="138" height="52" rx="12" fill="#07101D" stroke="#1E293B"/>
  <text x="68" y="662" fill="#64748B" font-size="11" font-family="Segoe UI,Arial">Last period</text>
  <text x="68" y="682" fill="#F8FAFC" font-size="14" font-family="Segoe UI,Arial" font-weight="700">Jul 26, 2026</text>
  <rect x="206" y="642" width="170" height="52" rx="12" fill="#07101D" stroke="#1E293B"/>
  <text x="220" y="662" fill="#64748B" font-size="11" font-family="Segoe UI,Arial">Payment</text>
  <text x="220" y="682" fill="#F8FAFC" font-size="14" font-family="Segoe UI,Arial" font-weight="700">Visa ending in 4242</text>

  <rect x="34" y="736" width="362" height="70" rx="16" fill="#101826" stroke="#223044"/>
  <text x="54" y="765" fill="#F87171" font-size="16" font-family="Segoe UI,Arial" font-weight="700">Premium route access: locked</text>
  <text x="54" y="790" fill="#94A3B8" font-size="11" font-family="Segoe UI,Arial">Premium routes are paused</text>
  <rect x="34" y="826" width="362" height="48" rx="24" fill="#FBBF24"/>
  <text x="134" y="856" fill="#05070A" font-size="16" font-family="Segoe UI,Arial" font-weight="800">Update payment method</text>
</svg>
